<svg viewBox="0 0 34 34" fill="none" xmlns="http://www.w3.org/2000/svg">
<g clip-path="url(#clip0)">
<path d="M17.3346 34.0014C17.222 34.0014 17.1095 34.0014 16.9961 34.0009C14.331 34.0073 11.8686 33.9396 9.47379 33.7938C7.27823 33.6603 5.27411 32.9015 3.67777 31.5998C2.13745 30.3438 1.08559 28.6455 0.551483 26.5527C0.0866395 24.7307 0.0619965 22.9421 0.0383911 21.2122C0.0212707 19.971 0.00363159 18.5002 0 17.0045C0.00363159 15.5026 0.0212707 14.0318 0.0383911 12.7905C0.0619965 11.0609 0.0866395 9.2723 0.551483 7.45002C1.08559 5.35719 2.13745 3.6589 3.67777 2.40289C5.27411 1.10122 7.27823 0.34248 9.47405 0.208889C11.8688 0.0633659 14.3318 -0.00459673 17.0026 0.00188826C19.6684 -0.00381853 22.1301 0.0633659 24.5249 0.208889C26.7205 0.34248 28.7246 1.10122 30.3209 2.40289C31.8615 3.6589 32.9131 5.35719 33.4472 7.45002C33.9121 9.27205 33.9367 11.0609 33.9603 12.7905C33.9774 14.0318 33.9953 15.5026 33.9987 16.9983V17.0045C33.9953 18.5002 33.9774 19.971 33.9603 21.2122C33.9367 22.9419 33.9123 24.7304 33.4472 26.5527C32.9131 28.6455 31.8615 30.3438 30.3209 31.5998C28.7246 32.9015 26.7205 33.6603 24.5249 33.7938C22.2316 33.9334 19.8757 34.0014 17.3346 34.0014ZM16.9961 31.3446C19.6179 31.3508 22.0251 31.2847 24.3636 31.1425C26.0237 31.0416 27.4631 30.5028 28.6424 29.5413C29.7324 28.6523 30.4831 27.4259 30.8735 25.8959C31.2605 24.3792 31.2828 22.7507 31.3043 21.1759C31.3212 19.943 31.3388 18.4825 31.3425 17.0014C31.3388 15.5199 31.3212 14.0598 31.3043 12.8269C31.2828 11.252 31.2605 9.62353 30.8735 8.10656C30.4831 6.57663 29.7324 5.35019 28.6424 4.46122C27.4631 3.49989 26.0237 2.96112 24.3636 2.86021C22.0251 2.7178 19.6179 2.65217 17.0023 2.65788C14.3811 2.65165 11.9736 2.7178 9.63513 2.86021C7.97498 2.96112 6.53557 3.49989 5.35634 4.46122C4.26634 5.35019 3.51564 6.57663 3.12524 8.10656C2.73822 9.62353 2.71591 11.2518 2.69438 12.8269C2.67752 14.0608 2.65988 15.522 2.65625 17.0045C2.65988 18.4805 2.67752 19.9419 2.69438 21.1759C2.71591 22.7507 2.73822 24.3792 3.12524 25.8959C3.51564 27.4259 4.26634 28.6523 5.35634 29.5413C6.53557 30.5026 7.97498 31.0414 9.63513 31.1423C11.9736 31.2847 14.3816 31.3511 16.9961 31.3446ZM16.9328 25.3022C12.356 25.3022 8.63204 21.5785 8.63204 17.0014C8.63204 12.4243 12.356 8.70059 16.9328 8.70059C21.5099 8.70059 25.2336 12.4243 25.2336 17.0014C25.2336 21.5785 21.5099 25.3022 16.9328 25.3022ZM16.9328 11.3568C13.8205 11.3568 11.2883 13.8891 11.2883 17.0014C11.2883 20.1136 13.8205 22.6459 16.9328 22.6459C20.0454 22.6459 22.5773 20.1136 22.5773 17.0014C22.5773 13.8891 20.0454 11.3568 16.9328 11.3568ZM26.1633 6.04434C25.0632 6.04434 24.1711 6.93615 24.1711 8.03653C24.1711 9.1369 25.0632 10.0287 26.1633 10.0287C27.2637 10.0287 28.1555 9.1369 28.1555 8.03653C28.1555 6.93615 27.2637 6.04434 26.1633 6.04434Z" fill="#B0B7C3"/>
</g>
<defs>
<clipPath id="clip0">
<rect width="34" height="34" fill="white"/>
</clipPath>
</defs>
</svg>
